<svg width="30" height="24" viewBox="0 0 30 24" fill="none" xmlns="http://www.w3.org/2000/svg">
<rect width="30" height="24" rx="3" fill="#00703C"/>
<path d="M14.25 5C15.4861 5 16.6945 5.36656 17.7223 6.05331C18.7501 6.74007 19.5512 7.71619 20.0242 8.85823C20.4973 10.0003 20.6211 11.2569 20.3799 12.4693C20.1388 13.6817 19.5435 14.7953 18.6694 15.6694C17.7953 16.5435 16.6817 17.1388 15.4693 17.3799C14.2569 17.6211 13.0003 17.4973 11.8582 17.0242C10.7162 16.5512 9.74007 15.7501 9.05331 14.7223C8.36656 13.6945 8 12.4861 8 11.25C8.00185 9.59297 8.66093 8.00433 9.83263 6.83263C11.0043 5.66093 12.593 5.00185 14.25 5ZM14.25 16C15.1895 16 16.1078 15.7214 16.889 15.1995C17.6701 14.6775 18.2789 13.9357 18.6384 13.0677C18.9979 12.1998 19.092 11.2447 18.9087 10.3233C18.7255 9.40191 18.2731 8.55554 17.6088 7.89124C16.9445 7.22694 16.0981 6.77455 15.1767 6.59127C14.2553 6.40799 13.3002 6.50206 12.4323 6.86157C11.5643 7.22109 10.8225 7.82991 10.3005 8.61104C9.77858 9.39217 9.5 10.3105 9.5 11.25C9.50132 12.5094 10.0022 13.7168 10.8927 14.6073C11.7832 15.4978 12.9906 15.9987 14.25 16Z" fill="white"/>
<path d="M21.239 18.989C21.1405 18.989 21.043 18.9696 20.9521 18.9318C20.8611 18.8941 20.7785 18.8387 20.709 18.769L17.573 15.633C17.4326 15.4924 17.3537 15.3017 17.3537 15.103C17.3537 14.9042 17.4326 14.7136 17.573 14.573C17.7136 14.4325 17.9043 14.3536 18.103 14.3536C18.3018 14.3536 18.4924 14.4325 18.633 14.573L21.77 17.709C21.8748 17.8139 21.9461 17.9474 21.975 18.0928C22.0039 18.2382 21.989 18.3889 21.9323 18.5259C21.8756 18.6629 21.7796 18.78 21.6563 18.8624C21.5331 18.9448 21.3882 18.9888 21.24 18.989H21.239Z" fill="white"/>
</svg>
